# xmcd
#
# Track frame offsets:
# 150
# 20741
# 42737
# 61769
# 80943
# 98200
# 113127
# 131172
# 147446
# 157699
# 175273
# 194960
# 217196
# 242406
# 254481
# 267644
# 284539
#
# Disc length: 4039 seconds
#
#
# Revision: 0
# Processed by: cddbd v1.5PL3 Copyright (c) Steve Scherf et al.
# Submitted via: FreeRIP 2.60 
#
DISCID=140fc511
DTITLE=Merlin - Blue
DYEAR=2002
DGENRE=Blues
TTITLE0=Restless Moon
TTITLE1=Shake
TTITLE2=Spell
TTITLE3=Annalina
TTITLE4=Pay No Mind (Piano Bar Mix)
TTITLE5=Angel
TTITLE6=Please
TTITLE7=Sleep
TTITLE8=Cold Sweat
TTITLE9=Stay (The Right Thing To Do)
TTITLE10=You're The One
TTITLE11=Why
TTITLE12=Spell (Acoustic Mix)
TTITLE13=Last Chance (Demo)
TTITLE14=Del Chatanooga
TTITLE15=Baby
TTITLE16=Restless Moon (Alternate Mix)
EXTD=
EXTT0=
EXTT1=
EXTT2=
EXTT3=
EXTT4=
EXTT5=
EXTT6=
EXTT7=
EXTT8=
EXTT9=
EXTT10=
EXTT11=
EXTT12=
EXTT13=
EXTT14=
EXTT15=
EXTT16=
PLAYORDER=
